<mxfile host="65bd71144e">
    <diagram id="0HfQzLo7QFs0opwVNU1l" name="Page-1">
        <mxGraphModel dx="761" dy="917" grid="1" gridSize="10" guides="1" tooltips="1" connect="1" arrows="1" fold="1" page="1" pageScale="1" pageWidth="850" pageHeight="1100" math="0" shadow="0">
            <root>
                <mxCell id="0"/>
                <mxCell id="1" parent="0"/>
                <mxCell id="2" value="" style="rounded=0;whiteSpace=wrap;html=1;" parent="1" vertex="1">
                    <mxGeometry x="80" y="80" width="680" height="60" as="geometry"/>
                </mxCell>
                <mxCell id="5" value="My Characters" style="rounded=1;whiteSpace=wrap;html=1;" parent="1" vertex="1">
                    <mxGeometry x="590" y="90" width="90" height="40" as="geometry"/>
                </mxCell>
                <mxCell id="6" value="Create New Character" style="rounded=1;whiteSpace=wrap;html=1;" parent="1" vertex="1">
                    <mxGeometry x="490" y="90" width="90" height="40" as="geometry"/>
                </mxCell>
                <mxCell id="7" value="Logout" style="rounded=1;whiteSpace=wrap;html=1;" parent="1" vertex="1">
                    <mxGeometry x="690" y="90" width="60" height="40" as="geometry"/>
                </mxCell>
                <mxCell id="8" value="user&lt;br&gt;icon" style="ellipse;whiteSpace=wrap;html=1;aspect=fixed;" parent="1" vertex="1">
                    <mxGeometry x="90" y="85" width="50" height="50" as="geometry"/>
                </mxCell>
                <mxCell id="9" value="Character name" style="rounded=0;whiteSpace=wrap;html=1;" parent="1" vertex="1">
                    <mxGeometry x="80" y="220" width="150" height="60" as="geometry"/>
                </mxCell>
                <mxCell id="10" value="Delete Character" style="rounded=1;whiteSpace=wrap;html=1;" parent="1" vertex="1">
                    <mxGeometry x="610" y="160" width="120" height="40" as="geometry"/>
                </mxCell>
                <mxCell id="11" value="Character Levels/Classes" style="rounded=0;whiteSpace=wrap;html=1;" parent="1" vertex="1">
                    <mxGeometry x="250" y="220" width="150" height="60" as="geometry"/>
                </mxCell>
                <mxCell id="12" value="Character Alignment" style="rounded=0;whiteSpace=wrap;html=1;" parent="1" vertex="1">
                    <mxGeometry x="420" y="220" width="150" height="60" as="geometry"/>
                </mxCell>
                <mxCell id="14" value="Character Image" style="rounded=0;whiteSpace=wrap;html=1;" parent="1" vertex="1">
                    <mxGeometry x="200" y="300" width="320" height="270" as="geometry"/>
                </mxCell>
                <mxCell id="15" value="Character Stats/Attributes" style="rounded=0;whiteSpace=wrap;html=1;" parent="1" vertex="1">
                    <mxGeometry x="200" y="590" width="320" height="270" as="geometry"/>
                </mxCell>
            </root>
        </mxGraphModel>
    </diagram>
</mxfile>